<svg xmlns="http://www.w3.org/2000/svg" viewBox="0 0 100 100" fill="none">
  <circle cx="50" cy="50" r="50" fill="#7B3FE4"/>
  <path d="M68.3 40.2c-1.4-.8-3.1-.8-4.5 0l-10.5 6.2-7.1 4-10.5 6.2c-1.4.8-3.1.8-4.5 0l-8.3-4.8c-1.4-.8-2.2-2.3-2.2-3.9v-9.4c0-1.6.9-3.1 2.2-3.9l8.2-4.7c1.4-.8 3.1-.8 4.5 0l8.2 4.7c1.4.8 2.2 2.3 2.2 3.9v6.2l7.1-4.2v-6.2c0-1.6-.9-3.1-2.2-3.9l-15.2-8.8c-1.4-.8-3.1-.8-4.5 0L16 29.4c-1.4.8-2.2 2.3-2.2 3.9v17.7c0 1.6.9 3.1 2.2 3.9l15.3 8.8c1.4.8 3.1.8 4.5 0l10.5-6.1 7.1-4.1 10.5-6.1c1.4-.8 3.1-.8 4.5 0l8.2 4.7c1.4.8 2.2 2.3 2.2 3.9v9.4c0 1.6-.9 3.1-2.2 3.9l-8.2 4.8c-1.4.8-3.1.8-4.5 0l-8.2-4.7c-1.4-.8-2.2-2.3-2.2-3.9v-6.2l-7.1 4.2v6.2c0 1.6.9 3.1 2.2 3.9l15.3 8.8c1.4.8 3.1.8 4.5 0l15.3-8.8c1.4-.8 2.2-2.3 2.2-3.9V51c0-1.6-.9-3.1-2.2-3.9l-15.4-8.8z" fill="#fff"/>
</svg>
