<svg xmlns="http://www.w3.org/2000/svg" viewBox="0 0 32 32">
  <defs>
    <linearGradient id="sg" x1="0%" y1="100%" x2="100%" y2="0%">
      <stop offset="0%" stop-color="#9945FF"/>
      <stop offset="50%" stop-color="#19FB9B"/>
      <stop offset="100%" stop-color="#14F195"/>
    </linearGradient>
  </defs>
  <path d="M6.5 22.5l2.1-2.1c.2-.2.4-.3.7-.3h18.2c.4 0 .7.5.4.8l-2.1 2.1c-.2.2-.4.3-.7.3H6.9c-.4 0-.7-.5-.4-.8z" fill="url(#sg)"/>
  <path d="M6.5 9.1l2.1-2.1c.2-.2.4-.3.7-.3h18.2c.4 0 .7.5.4.8l-2.1 2.1c-.2.2-.4.3-.7.3H6.9c-.4 0-.7-.5-.4-.8z" fill="url(#sg)"/>
  <path d="M25.5 15.7l-2.1-2.1c-.2-.2-.4-.3-.7-.3H4.5c-.4 0-.7.5-.4.8l2.1 2.1c.2.2.4.3.7.3h18.2c.4 0 .7-.5.4-.8z" fill="url(#sg)"/>
</svg>
