<svg id="my-svg" width="100%" xmlns="http://www.w3.org/2000/svg" xmlns:xlink="http://www.w3.org/1999/xlink" class="flowchart" style="max-width: 3073.89px; background-color: white;" viewBox="0 0 3073.890625 1626" role="graphics-document document" aria-roledescription="flowchart-v2"><style>#my-svg{font-family:"trebuchet ms",verdana,arial,sans-serif;font-size:16px;fill:#333;}@keyframes edge-animation-frame{from{stroke-dashoffset:0;}}@keyframes dash{to{stroke-dashoffset:0;}}#my-svg .edge-animation-slow{stroke-dasharray:9,5!important;stroke-dashoffset:900;animation:dash 50s linear infinite;stroke-linecap:round;}#my-svg .edge-animation-fast{stroke-dasharray:9,5!important;stroke-dashoffset:900;animation:dash 20s linear infinite;stroke-linecap:round;}#my-svg .error-icon{fill:#552222;}#my-svg .error-text{fill:#552222;stroke:#552222;}#my-svg .edge-thickness-normal{stroke-width:1px;}#my-svg .edge-thickness-thick{stroke-width:3.5px;}#my-svg .edge-pattern-solid{stroke-dasharray:0;}#my-svg .edge-thickness-invisible{stroke-width:0;fill:none;}#my-svg .edge-pattern-dashed{stroke-dasharray:3;}#my-svg .edge-pattern-dotted{stroke-dasharray:2;}#my-svg .marker{fill:#333333;stroke:#333333;}#my-svg .marker.cross{stroke:#333333;}#my-svg svg{font-family:"trebuchet ms",verdana,arial,sans-serif;font-size:16px;}#my-svg p{margin:0;}#my-svg .label{font-family:"trebuchet ms",verdana,arial,sans-serif;color:#333;}#my-svg .cluster-label text{fill:#333;}#my-svg .cluster-label span{color:#333;}#my-svg .cluster-label span p{background-color:transparent;}#my-svg .label text,#my-svg span{fill:#333;color:#333;}#my-svg .node rect,#my-svg .node circle,#my-svg .node ellipse,#my-svg .node polygon,#my-svg .node path{fill:#ECECFF;stroke:#9370DB;stroke-width:1px;}#my-svg .rough-node .label text,#my-svg .node .label text,#my-svg .image-shape .label,#my-svg .icon-shape .label{text-anchor:middle;}#my-svg .node .katex path{fill:#000;stroke:#000;stroke-width:1px;}#my-svg .rough-node .label,#my-svg .node .label,#my-svg .image-shape .label,#my-svg .icon-shape .label{text-align:center;}#my-svg .node.clickable{cursor:pointer;}#my-svg .root .anchor path{fill:#333333!important;stroke-width:0;stroke:#333333;}#my-svg .arrowheadPath{fill:#333333;}#my-svg .edgePath .path{stroke:#333333;stroke-width:2.0px;}#my-svg .flowchart-link{stroke:#333333;fill:none;}#my-svg .edgeLabel{background-color:rgba(232,232,232, 0.8);text-align:center;}#my-svg .edgeLabel p{background-color:rgba(232,232,232, 0.8);}#my-svg .edgeLabel rect{opacity:0.5;background-color:rgba(232,232,232, 0.8);fill:rgba(232,232,232, 0.8);}#my-svg .labelBkg{background-color:rgba(232, 232, 232, 0.5);}#my-svg .cluster rect{fill:#ffffde;stroke:#aaaa33;stroke-width:1px;}#my-svg .cluster text{fill:#333;}#my-svg .cluster span{color:#333;}#my-svg div.mermaidTooltip{position:absolute;text-align:center;max-width:200px;padding:2px;font-family:"trebuchet ms",verdana,arial,sans-serif;font-size:12px;background:hsl(80, 100%, 96.2745098039%);border:1px solid #aaaa33;border-radius:2px;pointer-events:none;z-index:100;}#my-svg .flowchartTitleText{text-anchor:middle;font-size:18px;fill:#333;}#my-svg rect.text{fill:none;stroke-width:0;}#my-svg .icon-shape,#my-svg .image-shape{background-color:rgba(232,232,232, 0.8);text-align:center;}#my-svg .icon-shape p,#my-svg .image-shape p{background-color:rgba(232,232,232, 0.8);padding:2px;}#my-svg .icon-shape .label rect,#my-svg .image-shape .label rect{opacity:0.5;background-color:rgba(232,232,232, 0.8);fill:rgba(232,232,232, 0.8);}#my-svg .label-icon{display:inline-block;height:1em;overflow:visible;vertical-align:-0.125em;}#my-svg .node .label-icon path{fill:currentColor;stroke:revert;stroke-width:revert;}#my-svg :root{--mermaid-font-family:"trebuchet ms",verdana,arial,sans-serif;}</style><g><marker id="my-svg_flowchart-v2-pointEnd" class="marker flowchart-v2" viewBox="0 0 10 10" refX="5" refY="5" markerUnits="userSpaceOnUse" markerWidth="8" markerHeight="8" orient="auto"><path d="M 0 0 L 10 5 L 0 10 z" class="arrowMarkerPath" style="stroke-width: 1; stroke-dasharray: 1, 0;"/></marker><marker id="my-svg_flowchart-v2-pointStart" class="marker flowchart-v2" viewBox="0 0 10 10" refX="4.5" refY="5" markerUnits="userSpaceOnUse" markerWidth="8" markerHeight="8" orient="auto"><path d="M 0 5 L 10 10 L 10 0 z" class="arrowMarkerPath" style="stroke-width: 1; stroke-dasharray: 1, 0;"/></marker><marker id="my-svg_flowchart-v2-circleEnd" class="marker flowchart-v2" viewBox="0 0 10 10" refX="11" refY="5" markerUnits="userSpaceOnUse" markerWidth="11" markerHeight="11" orient="auto"><circle cx="5" cy="5" r="5" class="arrowMarkerPath" style="stroke-width: 1; stroke-dasharray: 1, 0;"/></marker><marker id="my-svg_flowchart-v2-circleStart" class="marker flowchart-v2" viewBox="0 0 10 10" refX="-1" refY="5" markerUnits="userSpaceOnUse" markerWidth="11" markerHeight="11" orient="auto"><circle cx="5" cy="5" r="5" class="arrowMarkerPath" style="stroke-width: 1; stroke-dasharray: 1, 0;"/></marker><marker id="my-svg_flowchart-v2-crossEnd" class="marker cross flowchart-v2" viewBox="0 0 11 11" refX="12" refY="5.2" markerUnits="userSpaceOnUse" markerWidth="11" markerHeight="11" orient="auto"><path d="M 1,1 l 9,9 M 10,1 l -9,9" class="arrowMarkerPath" style="stroke-width: 2; stroke-dasharray: 1, 0;"/></marker><marker id="my-svg_flowchart-v2-crossStart" class="marker cross flowchart-v2" viewBox="0 0 11 11" refX="-1" refY="5.2" markerUnits="userSpaceOnUse" markerWidth="11" markerHeight="11" orient="auto"><path d="M 1,1 l 9,9 M 10,1 l -9,9" class="arrowMarkerPath" style="stroke-width: 2; stroke-dasharray: 1, 0;"/></marker><g class="root"><g class="clusters"><g class="cluster" id="SIDE2" data-look="classic"><rect style="" x="2171.5625" y="62" width="559.328125" height="148"/><g class="cluster-label" transform="translate(2389.734375, 62)"><foreignObject width="122.984375" height="24"><div xmlns="http://www.w3.org/1999/xhtml" style="display: table-cell; white-space: nowrap; line-height: 1.5;"><span class="nodeLabel"><p>🔬 回測 Backtest</p></span></div></foreignObject></g></g><g class="cluster" id="SIDE1" data-look="classic"><rect style="" x="1514.765625" y="8" width="296.796875" height="276"/><g class="cluster-label" transform="translate(1602.3984375, 8)"><foreignObject width="121.53125" height="24"><div xmlns="http://www.w3.org/1999/xhtml" style="display: table-cell; white-space: nowrap; line-height: 1.5;"><span class="nodeLabel"><p>🧠 AI 層 AI Layer</p></span></div></foreignObject></g></g><g class="cluster" id="L5" data-look="classic"><rect style="" x="1180.625" y="728" width="284.140625" height="276"/><g class="cluster-label" transform="translate(1266.9375, 728)"><foreignObject width="111.515625" height="24"><div xmlns="http://www.w3.org/1999/xhtml" style="display: table-cell; white-space: nowrap; line-height: 1.5;"><span class="nodeLabel"><p>👤 輸出 Output</p></span></div></foreignObject></g></g><g class="cluster" id="L4" data-look="classic"><rect style="" x="8" y="304" width="3057.890625" height="404"/><g class="cluster-label" transform="translate(1461.3046875, 304)"><foreignObject width="151.28125" height="24"><div xmlns="http://www.w3.org/1999/xhtml" style="display: table-cell; white-space: nowrap; line-height: 1.5;"><span class="nodeLabel"><p>🏦 交易所 Exchanges</p></span></div></foreignObject></g></g><g class="cluster" id="L3" data-look="classic"><rect style="" x="919.671875" y="1024" width="1811.21875" height="274"/><g class="cluster-label" transform="translate(1696.71875, 1024)"><foreignObject width="257.125" height="24"><div xmlns="http://www.w3.org/1999/xhtml" style="display: table-cell; white-space: nowrap; line-height: 1.5;"><span class="nodeLabel"><p>⚙️ 交易引擎 Trading Engine · 30min</p></span></div></foreignObject></g></g><g class="cluster" id="L2" data-look="classic"><rect style="" x="628.109375" y="1318" width="2437.78125" height="300"/><g class="cluster-label" transform="translate(1767.3359375, 1318)"><foreignObject width="159.328125" height="24"><div xmlns="http://www.w3.org/1999/xhtml" style="display: table-cell; white-space: nowrap; line-height: 1.5;"><span class="nodeLabel"><p>💾 狀態層 State Layer</p></span></div></foreignObject></g></g><g class="cluster" id="L1" data-look="classic"><rect style="" x="281.546875" y="1155" width="296.5625" height="404"/><g class="cluster-label" transform="translate(331.78125, 1155)"><foreignObject width="196.09375" height="24"><div xmlns="http://www.w3.org/1999/xhtml" style="display: table-cell; white-space: nowrap; line-height: 1.5;"><span class="nodeLabel"><p>📡 數據入口 Data Ingestion</p></span></div></foreignObject></g></g></g><g class="edgePaths"><path d="M1102.656,1130L1111.484,1126.333C1120.312,1122.667,1137.969,1115.333,1150.963,1111.667C1163.958,1108,1172.292,1108,1182.775,1108C1193.258,1108,1205.891,1108,1212.207,1108L1218.523,1108" id="L_PIPE_IND_0" class="edge-thickness-normal edge-pattern-solid edge-thickness-normal edge-pattern-solid flowchart-link" style=";" data-edge="true" data-et="edge" data-id="L_PIPE_IND_0" data-points="W3sieCI6MTEwMi42NTU5MzExMjI0NDksInkiOjExMzB9LHsieCI6MTE1NS42MjUsInkiOjExMDh9LHsieCI6MTE4MC42MjUsInkiOjExMDh9LHsieCI6MTIyMi41MjM0Mzc1LCJ5IjoxMTA4fV0=" marker-end="url(#my-svg_flowchart-v2-pointEnd)"/><path d="M1422.867,1142.549L1429.85,1144.958C1436.833,1147.366,1450.799,1152.183,1461.949,1154.592C1473.099,1157,1481.432,1157,1489.766,1157C1498.099,1157,1506.432,1157,1516.408,1157C1526.383,1157,1538,1157,1543.809,1157L1549.617,1157" id="L_IND_MODE_0" class="edge-thickness-normal edge-pattern-solid edge-thickness-normal edge-pattern-solid flowchart-link" style=";" data-edge="true" data-et="edge" data-id="L_IND_MODE_0" data-points="W3sieCI6MTQyMi44NjcxODc1LCJ5IjoxMTQyLjU0OTI0Mzg4MjMyMDV9LHsieCI6MTQ2NC43NjU2MjUsInkiOjExNTd9LHsieCI6MTQ4OS43NjU2MjUsInkiOjExNTd9LHsieCI6MTUxNC43NjU2MjUsInkiOjExNTd9LHsieCI6MTU1My42MTcxODc1LCJ5IjoxMTU3fV0=" marker-end="url(#my-svg_flowchart-v2-pointEnd)"/><path d="M1772.711,1157L1779.186,1157C1785.661,1157,1798.612,1157,1809.254,1157C1819.896,1157,1828.229,1157,1835.896,1157C1843.563,1157,1850.563,1157,1854.063,1157L1857.563,1157" id="L_MODE_STRAT_0" class="edge-thickness-normal edge-pattern-solid edge-thickness-normal edge-pattern-solid flowchart-link" style=";" data-edge="true" data-et="edge" data-id="L_MODE_STRAT_0" data-points="W3sieCI6MTc3Mi43MTA5Mzc1LCJ5IjoxMTU3fSx7IngiOjE4MTEuNTYyNSwieSI6MTE1N30seyJ4IjoxODM2LjU2MjUsInkiOjExNTd9LHsieCI6MTg2MS41NjI1LCJ5IjoxMTU3fV0=" marker-end="url(#my-svg_flowchart-v2-pointEnd)"/><path d="M2121.563,1165.387L2125.729,1165.656C2129.896,1165.925,2138.229,1166.462,2146.563,1166.731C2154.896,1167,2163.229,1167,2171.673,1167C2180.117,1167,2188.672,1167,2192.949,1167L2197.227,1167" id="L_STRAT_RISK_0" class="edge-thickness-normal edge-pattern-solid edge-thickness-normal edge-pattern-solid flowchart-link" style=";" data-edge="true" data-et="edge" data-id="L_STRAT_RISK_0" data-points="W3sieCI6MjEyMS41NjI1LCJ5IjoxMTY1LjM4NzA5Njc3NDE5Mzd9LHsieCI6MjE0Ni41NjI1LCJ5IjoxMTY3fSx7IngiOjIxNzEuNTYyNSwieSI6MTE2N30seyJ4IjoyMjAxLjIyNjU2MjUsInkiOjExNjd9XQ==" marker-end="url(#my-svg_flowchart-v2-pointEnd)"/><path d="M2438.414,1167L2443.358,1167C2448.302,1167,2458.19,1167,2468.372,1167C2478.555,1167,2489.031,1167,2494.27,1167L2499.508,1167" id="L_RISK_EXEC_0" class="edge-thickness-normal edge-pattern-solid edge-thickness-normal edge-pattern-solid flowchart-link" style=";" data-edge="true" data-et="edge" data-id="L_RISK_EXEC_0" data-points="W3sieCI6MjQzOC40MTQwNjI1LCJ5IjoxMTY3fSx7IngiOjI0NjguMDc4MTI1LCJ5IjoxMTY3fSx7IngiOjI1MDMuNTA3ODEyNSwieSI6MTE2N31d" marker-end="url(#my-svg_flowchart-v2-pointEnd)"/><path d="M552.87,1396L557.077,1397.333C561.283,1398.667,569.696,1401.333,578.069,1402.667C586.443,1404,594.776,1404,603.109,1404C611.443,1404,619.776,1404,633.366,1409.02C646.956,1414.04,665.803,1424.08,675.226,1429.099L684.649,1434.119" id="L_SCAN_SC_0" class="edge-thickness-normal edge-pattern-solid edge-thickness-normal edge-pattern-solid flowchart-link" style=";" data-edge="true" data-et="edge" data-id="L_SCAN_SC_0" data-points="W3sieCI6NTUyLjg3MDAxMzI5Nzg3MjMsInkiOjEzOTZ9LHsieCI6NTc4LjEwOTM3NSwieSI6MTQwNH0seyJ4Ijo2MDMuMTA5Mzc1LCJ5IjoxNDA0fSx7IngiOjYyOC4xMDkzNzUsInkiOjE0MDR9LHsieCI6Njg4LjE3OTc5NzUzNTIxMTMsInkiOjE0MzZ9XQ==" marker-end="url(#my-svg_flowchart-v2-pointEnd)"/><path d="M530.922,1485L538.786,1485C546.651,1485,562.38,1485,574.411,1485C586.443,1485,594.776,1485,603.109,1485C611.443,1485,619.776,1485,627.445,1484.737C635.113,1484.475,642.117,1483.949,645.619,1483.686L649.121,1483.424" id="L_LIGHT_SC_0" class="edge-thickness-normal edge-pattern-solid edge-thickness-normal edge-pattern-solid flowchart-link" style=";" data-edge="true" data-et="edge" data-id="L_LIGHT_SC_0" data-points="W3sieCI6NTMwLjkyMTg3NSwieSI6MTQ4NX0seyJ4Ijo1NzguMTA5Mzc1LCJ5IjoxNDg1fSx7IngiOjYwMy4xMDkzNzUsInkiOjE0ODV9LHsieCI6NjI4LjEwOTM3NSwieSI6MTQ4NX0seyJ4Ijo2NTMuMTA5Mzc1LCJ5IjoxNDgzLjEyNDI2NzI5MTkxMDl9XQ==" marker-end="url(#my-svg_flowchart-v2-pointEnd)"/><path d="M542.359,1229L548.318,1229C554.276,1229,566.193,1229,576.318,1050.167C586.443,871.333,594.776,513.667,603.109,334.833C611.443,156,619.776,156,646.156,156C672.536,156,716.964,156,761.391,156C805.818,156,850.245,156,876.625,156C903.005,156,911.339,156,935.168,156C958.997,156,998.323,156,1037.648,156C1076.974,156,1116.299,156,1140.129,156C1163.958,156,1172.292,156,1200.137,156C1227.982,156,1275.339,156,1322.695,156C1370.052,156,1417.409,156,1445.254,156C1473.099,156,1481.432,156,1489.766,156C1498.099,156,1506.432,156,1516.843,158.272C1527.253,160.544,1539.741,165.088,1545.985,167.36L1552.229,169.632" id="L_NEWS_HAI_0" class="edge-thickness-normal edge-pattern-solid edge-thickness-normal edge-pattern-solid flowchart-link" style=";" data-edge="true" data-et="edge" data-id="L_NEWS_HAI_0" data-points="W3sieCI6NTQyLjM1OTM3NSwieSI6MTIyOX0seyJ4Ijo1NzguMTA5Mzc1LCJ5IjoxMjI5fSx7IngiOjYwMy4xMDkzNzUsInkiOjE1Nn0seyJ4Ijo2MjguMTA5Mzc1LCJ5IjoxNTZ9LHsieCI6NzYxLjM5MDYyNSwieSI6MTU2fSx7IngiOjg5NC42NzE4NzUsInkiOjE1Nn0seyJ4Ijo5MTkuNjcxODc1LCJ5IjoxNTZ9LHsieCI6MTAzNy42NDg0Mzc1LCJ5IjoxNTZ9LHsieCI6MTE1NS42MjUsInkiOjE1Nn0seyJ4IjoxMTgwLjYyNSwieSI6MTU2fSx7IngiOjEzMjIuNjk1MzEyNSwieSI6MTU2fSx7IngiOjE0NjQuNzY1NjI1LCJ5IjoxNTZ9LHsieCI6MTQ4OS43NjU2MjUsInkiOjE1Nn0seyJ4IjoxNTE0Ljc2NTYyNSwieSI6MTU2fSx7IngiOjE1NTUuOTg3NDEzMTk0NDQ0MywieSI6MTcxfV0=" marker-end="url(#my-svg_flowchart-v2-pointEnd)"/><path d="M231.547,506L235.714,506C239.88,506,248.214,506,256.547,506C264.88,506,273.214,506,300.847,640.677C328.48,775.353,375.413,1044.706,398.879,1179.383L422.346,1314.059" id="L_OTHERS_SCAN_0" class="edge-thickness-normal edge-pattern-solid edge-thickness-normal edge-pattern-solid flowchart-link" style=";" data-edge="true" data-et="edge" data-id="L_OTHERS_SCAN_0" data-points="W3sieCI6MjMxLjU0Njg3NSwieSI6NTA2fSx7IngiOjI1Ni41NDY4NzUsInkiOjUwNn0seyJ4IjoyODEuNTQ2ODc1LCJ5Ijo1MDZ9LHsieCI6NDIzLjAzMjYyNzA1NjQwNDI0LCJ5IjoxMzE4fV0=" marker-end="url(#my-svg_flowchart-v2-pointEnd)"/><path d="M2835.102,404.404L2821.9,409.003C2808.698,413.603,2782.294,422.801,2764.926,427.401C2747.557,432,2739.224,432,2713.156,432C2687.089,432,2643.286,432,2599.484,432C2555.682,432,2511.88,432,2465.27,432C2418.659,432,2369.24,432,2319.82,432C2270.401,432,2220.982,432,2192.105,432C2163.229,432,2154.896,432,2124.896,432C2094.896,432,2043.229,432,1991.563,432C1939.896,432,1888.229,432,1858.229,432C1828.229,432,1819.896,432,1790.996,432C1762.096,432,1712.63,432,1663.164,432C1613.698,432,1564.232,432,1535.332,432C1506.432,432,1498.099,432,1489.766,432C1481.432,432,1473.099,432,1445.254,432C1417.409,432,1370.052,432,1322.695,432C1275.339,432,1227.982,432,1200.137,432C1172.292,432,1163.958,432,1140.129,432C1116.299,432,1076.974,432,1037.648,432C998.323,432,958.997,432,935.168,432C911.339,432,903.005,432,876.625,432C850.245,432,805.818,432,761.391,432C716.964,432,672.536,432,646.156,432C619.776,432,611.443,432,603.109,576C594.776,720,586.443,1008,573.979,1155.413C561.516,1302.826,544.923,1309.652,536.627,1313.065L528.33,1316.478" id="L_ASTER_SCAN_0" class="edge-thickness-normal edge-pattern-solid edge-thickness-normal edge-pattern-solid flowchart-link" style=";" data-edge="true" data-et="edge" data-id="L_ASTER_SCAN_0" data-points="W3sieCI6MjgzNS4xMDE1NjI1LCJ5Ijo0MDQuNDAzOTMxNDUxNjEyOX0seyJ4IjoyNzU1Ljg5MDYyNSwieSI6NDMyfSx7IngiOjI3MzAuODkwNjI1LCJ5Ijo0MzJ9LHsieCI6MjU5OS40ODQzNzUsInkiOjQzMn0seyJ4IjoyNDY4LjA3ODEyNSwieSI6NDMyfSx7IngiOjIzMTkuODIwMzEyNSwieSI6NDMyfSx7IngiOjIxNzEuNTYyNSwieSI6NDMyfSx7IngiOjIxNDYuNTYyNSwieSI6NDMyfSx7IngiOjE5OTEuNTYyNSwieSI6NDMyfSx7IngiOjE4MzYuNTYyNSwieSI6NDMyfSx7IngiOjE4MTEuNTYyNSwieSI6NDMyfSx7IngiOjE2NjMuMTY0MDYyNSwieSI6NDMyfSx7IngiOjE1MTQuNzY1NjI1LCJ5Ijo0MzJ9LHsieCI6MTQ4OS43NjU2MjUsInkiOjQzMn0seyJ4IjoxNDY0Ljc2NTYyNSwieSI6NDMyfSx7IngiOjEzMjIuNjk1MzEyNSwieSI6NDMyfSx7IngiOjExODAuNjI1LCJ5Ijo0MzJ9LHsieCI6MTE1NS42MjUsInkiOjQzMn0seyJ4IjoxMDM3LjY0ODQzNzUsInkiOjQzMn0seyJ4Ijo5MTkuNjcxODc1LCJ5Ijo0MzJ9LHsieCI6ODk0LjY3MTg3NSwieSI6NDMyfSx7IngiOjc2MS4zOTA2MjUsInkiOjQzMn0seyJ4Ijo2MjguMTA5Mzc1LCJ5Ijo0MzJ9LHsieCI6NjAzLjEwOTM3NSwieSI6NDMyfSx7IngiOjU3OC4xMDkzNzUsInkiOjEyOTZ9LHsieCI6NTI0LjYzMDg5MTM5MzQ0MjcsInkiOjEzMTh9XQ==" marker-end="url(#my-svg_flowchart-v2-pointEnd)"/><path d="M869.672,1475L873.839,1475C878.005,1475,886.339,1475,894.672,1475C903.005,1475,911.339,1475,933.267,1427.125C955.195,1379.25,990.717,1283.5,1008.479,1235.625L1026.24,1187.75" id="L_SC_PIPE_0" class="edge-thickness-normal edge-pattern-solid edge-thickness-normal edge-pattern-solid flowchart-link" style=";" data-edge="true" data-et="edge" data-id="L_SC_PIPE_0" data-points="W3sieCI6ODY5LjY3MTg3NSwieSI6MTQ3NX0seyJ4Ijo4OTQuNjcxODc1LCJ5IjoxNDc1fSx7IngiOjkxOS42NzE4NzUsInkiOjE0NzV9LHsieCI6MTAyNy42MzE1NTk1NTE4ODY4LCJ5IjoxMTg0fV0=" marker-end="url(#my-svg_flowchart-v2-pointEnd)"/><path d="M2837.012,1455L2823.492,1464.333C2809.972,1473.667,2782.931,1492.333,2765.244,1457.667C2747.557,1423,2739.224,1335,2713.156,1291C2687.089,1247,2643.286,1247,2599.484,1247C2555.682,1247,2511.88,1247,2465.27,1247C2418.659,1247,2369.24,1247,2319.82,1247C2270.401,1247,2220.982,1247,2192.105,1247C2163.229,1247,2154.896,1247,2124.896,1247C2094.896,1247,2043.229,1247,1991.563,1247C1939.896,1247,1888.229,1247,1858.229,1247C1828.229,1247,1819.896,1247,1790.996,1247C1762.096,1247,1712.63,1247,1663.164,1247C1613.698,1247,1564.232,1247,1535.332,1247C1506.432,1247,1498.099,1247,1489.766,1247C1481.432,1247,1473.099,1247,1445.254,1247C1417.409,1247,1370.052,1247,1322.695,1247C1275.339,1247,1227.982,1247,1200.137,1247C1172.292,1247,1163.958,1247,1146.558,1236.904C1129.157,1226.809,1102.689,1206.617,1089.456,1196.522L1076.222,1186.426" id="L_TS_PIPE_0" class="edge-thickness-normal edge-pattern-solid edge-thickness-normal edge-pattern-solid flowchart-link" style=";" data-edge="true" data-et="edge" data-id="L_TS_PIPE_0" data-points="W3sieCI6MjgzNy4wMTIxMjAzMjcxMDMsInkiOjE0NTV9LHsieCI6Mjc1NS44OTA2MjUsInkiOjE1MTF9LHsieCI6MjczMC44OTA2MjUsInkiOjEyNDd9LHsieCI6MjU5OS40ODQzNzUsInkiOjEyNDd9LHsieCI6MjQ2OC4wNzgxMjUsInkiOjEyNDd9LHsieCI6MjMxOS44MjAzMTI1LCJ5IjoxMjQ3fSx7IngiOjIxNzEuNTYyNSwieSI6MTI0N30seyJ4IjoyMTQ2LjU2MjUsInkiOjEyNDd9LHsieCI6MTk5MS41NjI1LCJ5IjoxMjQ3fSx7IngiOjE4MzYuNTYyNSwieSI6MTI0N30seyJ4IjoxODExLjU2MjUsInkiOjEyNDd9LHsieCI6MTY2My4xNjQwNjI1LCJ5IjoxMjQ3fSx7IngiOjE1MTQuNzY1NjI1LCJ5IjoxMjQ3fSx7IngiOjE0ODkuNzY1NjI1LCJ5IjoxMjQ3fSx7IngiOjE0NjQuNzY1NjI1LCJ5IjoxMjQ3fSx7IngiOjEzMjIuNjk1MzEyNSwieSI6MTI0N30seyJ4IjoxMTgwLjYyNSwieSI6MTI0N30seyJ4IjoxMTU1LjYyNSwieSI6MTI0N30seyJ4IjoxMDczLjA0MTQwNjI1LCJ5IjoxMTg0fV0=" marker-end="url(#my-svg_flowchart-v2-pointEnd)"/><path d="M2695.461,1135.594L2701.366,1133.661C2707.271,1131.729,2719.081,1127.865,2729.152,997.099C2739.224,866.333,2747.557,608.667,2764.269,482.019C2780.981,355.371,2806.071,359.741,2818.616,361.926L2831.161,364.112" id="L_EXEC_ASTER_0" class="edge-thickness-normal edge-pattern-solid edge-thickness-normal edge-pattern-solid flowchart-link" style=";" data-edge="true" data-et="edge" data-id="L_EXEC_ASTER_0" data-points="W3sieCI6MjY5NS40NjA5Mzc1LCJ5IjoxMTM1LjU5MzYzODUyNTU2NDh9LHsieCI6MjczMC44OTA2MjUsInkiOjExMjR9LHsieCI6Mjc1NS44OTA2MjUsInkiOjM1MX0seyJ4IjoyODM1LjEwMTU2MjUsInkiOjM2NC43OTgwMzQyNzQxOTM1fV0=" marker-end="url(#my-svg_flowchart-v2-pointEnd)"/><path d="M2695.461,1150.201L2701.366,1149.168C2707.271,1148.134,2719.081,1146.067,2729.152,1038.7C2739.224,931.333,2747.557,718.667,2762.73,612.333C2777.904,506,2799.917,506,2810.923,506L2821.93,506" id="L_EXEC_BN_0" class="edge-thickness-normal edge-pattern-solid edge-thickness-normal edge-pattern-solid flowchart-link" style=";" data-edge="true" data-et="edge" data-id="L_EXEC_BN_0" data-points="W3sieCI6MjY5NS40NjA5Mzc1LCJ5IjoxMTUwLjIwMTI0ODUxMzY3NDN9LHsieCI6MjczMC44OTA2MjUsInkiOjExNDR9LHsieCI6Mjc1NS44OTA2MjUsInkiOjUwNn0seyJ4IjoyODI1LjkyOTY4NzUsInkiOjUwNn1d" marker-end="url(#my-svg_flowchart-v2-pointEnd)"/><path d="M2695.461,1179.416L2701.366,1180.18C2707.271,1180.944,2719.081,1182.472,2729.152,1091.569C2739.224,1000.667,2747.557,817.333,2764.184,725.667C2780.81,634,2805.729,634,2818.189,634L2830.648,634" id="L_EXEC_HL_0" class="edge-thickness-normal edge-pattern-solid edge-thickness-normal edge-pattern-solid flowchart-link" style=";" data-edge="true" data-et="edge" data-id="L_EXEC_HL_0" data-points="W3sieCI6MjY5NS40NjA5Mzc1LCJ5IjoxMTc5LjQxNjQ2ODQ4OTg5M30seyJ4IjoyNzMwLjg5MDYyNSwieSI6MTE4NH0seyJ4IjoyNzU1Ljg5MDYyNSwieSI6NjM0fSx7IngiOjI4MzQuNjQ4NDM3NSwieSI6NjM0fV0=" marker-end="url(#my-svg_flowchart-v2-pointEnd)"/><path d="M2695.461,1194.024L2701.366,1195.687C2707.271,1197.349,2719.081,1200.675,2729.152,1229.671C2739.224,1258.667,2747.557,1313.333,2755.241,1341.484C2762.925,1369.634,2769.96,1371.268,2773.477,1372.085L2776.994,1372.902" id="L_EXEC_TS_0" class="edge-thickness-normal edge-pattern-solid edge-thickness-normal edge-pattern-solid flowchart-link" style=";" data-edge="true" data-et="edge" data-id="L_EXEC_TS_0" data-points="W3sieCI6MjY5NS40NjA5Mzc1LCJ5IjoxMTk0LjAyNDA3ODQ3ODAwMjR9LHsieCI6MjczMC44OTA2MjUsInkiOjEyMDR9LHsieCI6Mjc1NS44OTA2MjUsInkiOjEzNjh9LHsieCI6Mjc4MC44OTA2MjUsInkiOjEzNzMuODA2NDUxNjEyOTAzMn1d" marker-end="url(#my-svg_flowchart-v2-pointEnd)"/><path d="M1066.606,1184L1081.443,1197.833C1096.279,1211.667,1125.952,1239.333,1144.955,1253.167C1163.958,1267,1172.292,1267,1195.158,1293.456C1218.024,1319.911,1255.422,1372.822,1274.121,1399.278L1292.821,1425.734" id="L_PIPE_MEM_0" class="edge-thickness-normal edge-pattern-solid edge-thickness-normal edge-pattern-solid flowchart-link" style=";" data-edge="true" data-et="edge" data-id="L_PIPE_MEM_0" data-points="W3sieCI6MTA2Ni42MDYzMjEwMjI3MjczLCJ5IjoxMTg0fSx7IngiOjExNTUuNjI1LCJ5IjoxMjY3fSx7IngiOjExODAuNjI1LCJ5IjoxMjY3fSx7IngiOjEyOTUuMTI5NDMwOTcwMTQ5MywieSI6MTQyOX1d" marker-end="url(#my-svg_flowchart-v2-pointEnd)"/><path d="M1070.829,1130L1084.962,1118.5C1099.095,1107,1127.36,1084,1145.659,1072.5C1163.958,1061,1172.292,1061,1196.251,1024.918C1220.21,988.836,1259.794,916.671,1279.586,880.589L1299.379,844.507" id="L_PIPE_TG_0" class="edge-thickness-normal edge-pattern-solid edge-thickness-normal edge-pattern-solid flowchart-link" style=";" data-edge="true" data-et="edge" data-id="L_PIPE_TG_0" data-points="W3sieCI6MTA3MC44MjkzNDU3MDMxMjUsInkiOjExMzB9LHsieCI6MTE1NS42MjUsInkiOjEwNjF9LHsieCI6MTE4MC42MjUsInkiOjEwNjF9LHsieCI6MTMwMS4zMDI0ODU1MjEyMzU0LCJ5Ijo4NDF9XQ==" marker-end="url(#my-svg_flowchart-v2-pointEnd)"/><path d="M1432.992,788.802L1438.288,788.168C1443.583,787.535,1454.174,786.267,1463.637,668.467C1473.099,550.667,1481.432,316.333,1489.766,199.167C1498.099,82,1506.432,82,1515.861,82C1525.289,82,1535.813,82,1541.074,82L1546.336,82" id="L_TG_SON_0" class="edge-thickness-normal edge-pattern-solid edge-thickness-normal edge-pattern-solid flowchart-link" style=";" data-edge="true" data-et="edge" data-id="L_TG_SON_0" data-points="W3sieCI6MTQzMi45OTIxODc1LCJ5Ijo3ODguODAxOTc5NjUzNTYwNn0seyJ4IjoxNDY0Ljc2NTYyNSwieSI6Nzg1fSx7IngiOjE0ODkuNzY1NjI1LCJ5Ijo4Mn0seyJ4IjoxNTE0Ljc2NTYyNSwieSI6ODJ9LHsieCI6MTU1MC4zMzU5Mzc1LCJ5Ijo4Mn1d" marker-end="url(#my-svg_flowchart-v2-pointEnd)"/><path d="M1425.302,841L1431.879,843.5C1438.456,846,1451.611,851,1462.355,750.333C1473.099,649.667,1481.432,443.333,1489.766,340.167C1498.099,237,1506.432,237,1514.11,236.361C1521.787,235.722,1528.809,234.445,1532.319,233.806L1535.83,233.167" id="L_TG_HAI_0" class="edge-thickness-normal edge-pattern-solid edge-thickness-normal edge-pattern-solid flowchart-link" style=";" data-edge="true" data-et="edge" data-id="L_TG_HAI_0" data-points="W3sieCI6MTQyNS4zMDE2NDkzMDU1NTU3LCJ5Ijo4NDF9LHsieCI6MTQ2NC43NjU2MjUsInkiOjg1Nn0seyJ4IjoxNDg5Ljc2NTYyNSwieSI6MjM3fSx7IngiOjE1MTQuNzY1NjI1LCJ5IjoyMzd9LHsieCI6MTUzOS43NjU2MjUsInkiOjIzMi40NTE0MzQ1ODgwNDk1fV0=" marker-end="url(#my-svg_flowchart-v2-pointEnd)"/><path d="M1416.344,930L1424.414,930C1432.484,930,1448.625,930,1460.862,1010.167C1473.099,1090.333,1481.432,1250.667,1489.766,1330.833C1498.099,1411,1506.432,1411,1535.332,1411C1564.232,1411,1613.698,1411,1663.164,1411C1712.63,1411,1762.096,1411,1790.996,1411C1819.896,1411,1828.229,1411,1858.229,1411C1888.229,1411,1939.896,1411,1991.563,1411C2043.229,1411,2094.896,1411,2124.896,1411C2154.896,1411,2163.229,1411,2192.105,1411C2220.982,1411,2270.401,1411,2319.82,1411C2369.24,1411,2418.659,1411,2465.27,1411C2511.88,1411,2555.682,1411,2599.484,1411C2643.286,1411,2687.089,1411,2713.156,1411C2739.224,1411,2747.557,1411,2755.225,1410.842C2762.892,1410.684,2769.893,1410.368,2773.394,1410.21L2776.895,1410.051" id="L_DASH_TS_0" class="edge-thickness-normal edge-pattern-solid edge-thickness-normal edge-pattern-solid flowchart-link" style=";" data-edge="true" data-et="edge" data-id="L_DASH_TS_0" data-points="W3sieCI6MTQxNi4zNDM3NSwieSI6OTMwfSx7IngiOjE0NjQuNzY1NjI1LCJ5Ijo5MzB9LHsieCI6MTQ4OS43NjU2MjUsInkiOjE0MTF9LHsieCI6MTUxNC43NjU2MjUsInkiOjE0MTF9LHsieCI6MTY2My4xNjQwNjI1LCJ5IjoxNDExfSx7IngiOjE4MTEuNTYyNSwieSI6MTQxMX0seyJ4IjoxODM2LjU2MjUsInkiOjE0MTF9LHsieCI6MTk5MS41NjI1LCJ5IjoxNDExfSx7IngiOjIxNDYuNTYyNSwieSI6MTQxMX0seyJ4IjoyMTcxLjU2MjUsInkiOjE0MTF9LHsieCI6MjMxOS44MjAzMTI1LCJ5IjoxNDExfSx7IngiOjI0NjguMDc4MTI1LCJ5IjoxNDExfSx7IngiOjI1OTkuNDg0Mzc1LCJ5IjoxNDExfSx7IngiOjI3MzAuODkwNjI1LCJ5IjoxNDExfSx7IngiOjI3NTUuODkwNjI1LCJ5IjoxNDExfSx7IngiOjI3ODAuODkwNjI1LCJ5IjoxNDA5Ljg3MDk2Nzc0MTkzNTR9XQ==" marker-end="url(#my-svg_flowchart-v2-pointEnd)"/><path d="M1422.867,1081.912L1429.85,1080.093C1436.833,1078.275,1450.799,1074.637,1461.949,1072.819C1473.099,1071,1481.432,1071,1489.766,1071C1498.099,1071,1506.432,1071,1535.332,1071C1564.232,1071,1613.698,1071,1663.164,1071C1712.63,1071,1762.096,1071,1790.996,1071C1819.896,1071,1828.229,1071,1858.229,1071C1888.229,1071,1939.896,1071,1991.563,1071C2043.229,1071,2094.896,1071,2124.896,1071C2154.896,1071,2163.229,1071,2190.97,922.325C2218.712,773.65,2265.861,476.3,2289.435,327.626L2313.01,178.951" id="L_IND_BT_0" class="edge-thickness-normal edge-pattern-dotted edge-thickness-normal edge-pattern-solid flowchart-link" style=";" data-edge="true" data-et="edge" data-id="L_IND_BT_0" data-points="W3sieCI6MTQyMi44NjcxODc1LCJ5IjoxMDgxLjkxMTc5NTQzNTc5ODd9LHsieCI6MTQ2NC43NjU2MjUsInkiOjEwNzF9LHsieCI6MTQ4OS43NjU2MjUsInkiOjEwNzF9LHsieCI6MTUxNC43NjU2MjUsInkiOjEwNzF9LHsieCI6MTY2My4xNjQwNjI1LCJ5IjoxMDcxfSx7IngiOjE4MTEuNTYyNSwieSI6MTA3MX0seyJ4IjoxODM2LjU2MjUsInkiOjEwNzF9LHsieCI6MTk5MS41NjI1LCJ5IjoxMDcxfSx7IngiOjIxNDYuNTYyNSwieSI6MTA3MX0seyJ4IjoyMTcxLjU2MjUsInkiOjEwNzF9LHsieCI6MjMxMy42MzYyOTY3OTE0NDQsInkiOjE3NX1d" marker-end="url(#my-svg_flowchart-v2-pointEnd)"/><path d="M2121.563,1129.323L2125.729,1128.435C2129.896,1127.548,2138.229,1125.774,2146.563,1124.887C2154.896,1124,2163.229,1124,2191.031,966.493C2218.833,808.985,2266.104,493.97,2289.739,336.463L2313.374,178.956" id="L_STRAT_BT_0" class="edge-thickness-normal edge-pattern-dotted edge-thickness-normal edge-pattern-solid flowchart-link" style=";" data-edge="true" data-et="edge" data-id="L_STRAT_BT_0" data-points="W3sieCI6MjEyMS41NjI1LCJ5IjoxMTI5LjMyMjU4MDY0NTE2MTJ9LHsieCI6MjE0Ni41NjI1LCJ5IjoxMTI0fSx7IngiOjIxNzEuNTYyNSwieSI6MTEyNH0seyJ4IjoyMzEzLjk2ODAzMDQyNzYzMTcsInkiOjE3NX1d" marker-end="url(#my-svg_flowchart-v2-pointEnd)"/><path d="M2443.078,136L2447.245,136C2451.411,136,2459.745,136,2467.411,136C2475.078,136,2482.078,136,2485.578,136L2489.078,136" id="L_BT_VAL_0" class="edge-thickness-normal edge-pattern-solid edge-thickness-normal edge-pattern-solid flowchart-link" style=";" data-edge="true" data-et="edge" data-id="L_BT_VAL_0" data-points="W3sieCI6MjQ0My4wNzgxMjUsInkiOjEzNn0seyJ4IjoyNDY4LjA3ODEyNSwieSI6MTM2fSx7IngiOjI0OTMuMDc4MTI1LCJ5IjoxMzZ9XQ==" marker-end="url(#my-svg_flowchart-v2-pointEnd)"/></g><g class="edgeLabels"><g class="edgeLabel"><g class="label" data-id="L_PIPE_IND_0" transform="translate(0, 0)"><foreignObject width="0" height="0"><div xmlns="http://www.w3.org/1999/xhtml" class="labelBkg" style="display: table-cell; white-space: nowrap; line-height: 1.5; max-width: 200px; text-align: center;"><span class="edgeLabel"></span></div></foreignObject></g></g><g class="edgeLabel"><g class="label" data-id="L_IND_MODE_0" transform="translate(0, 0)"><foreignObject width="0" height="0"><div xmlns="http://www.w3.org/1999/xhtml" class="labelBkg" style="display: table-cell; white-space: nowrap; line-height: 1.5; max-width: 200px; text-align: center;"><span class="edgeLabel"></span></div></foreignObject></g></g><g class="edgeLabel"><g class="label" data-id="L_MODE_STRAT_0" transform="translate(0, 0)"><foreignObject width="0" height="0"><div xmlns="http://www.w3.org/1999/xhtml" class="labelBkg" style="display: table-cell; white-space: nowrap; line-height: 1.5; max-width: 200px; text-align: center;"><span class="edgeLabel"></span></div></foreignObject></g></g><g class="edgeLabel"><g class="label" data-id="L_STRAT_RISK_0" transform="translate(0, 0)"><foreignObject width="0" height="0"><div xmlns="http://www.w3.org/1999/xhtml" class="labelBkg" style="display: table-cell; white-space: nowrap; line-height: 1.5; max-width: 200px; text-align: center;"><span class="edgeLabel"></span></div></foreignObject></g></g><g class="edgeLabel"><g class="label" data-id="L_RISK_EXEC_0" transform="translate(0, 0)"><foreignObject width="0" height="0"><div xmlns="http://www.w3.org/1999/xhtml" class="labelBkg" style="display: table-cell; white-space: nowrap; line-height: 1.5; max-width: 200px; text-align: center;"><span class="edgeLabel"></span></div></foreignObject></g></g><g class="edgeLabel"><g class="label" data-id="L_SCAN_SC_0" transform="translate(0, 0)"><foreignObject width="0" height="0"><div xmlns="http://www.w3.org/1999/xhtml" class="labelBkg" style="display: table-cell; white-space: nowrap; line-height: 1.5; max-width: 200px; text-align: center;"><span class="edgeLabel"></span></div></foreignObject></g></g><g class="edgeLabel"><g class="label" data-id="L_LIGHT_SC_0" transform="translate(0, 0)"><foreignObject width="0" height="0"><div xmlns="http://www.w3.org/1999/xhtml" class="labelBkg" style="display: table-cell; white-space: nowrap; line-height: 1.5; max-width: 200px; text-align: center;"><span class="edgeLabel"></span></div></foreignObject></g></g><g class="edgeLabel"><g class="label" data-id="L_NEWS_HAI_0" transform="translate(0, 0)"><foreignObject width="0" height="0"><div xmlns="http://www.w3.org/1999/xhtml" class="labelBkg" style="display: table-cell; white-space: nowrap; line-height: 1.5; max-width: 200px; text-align: center;"><span class="edgeLabel"></span></div></foreignObject></g></g><g class="edgeLabel"><g class="label" data-id="L_OTHERS_SCAN_0" transform="translate(0, 0)"><foreignObject width="0" height="0"><div xmlns="http://www.w3.org/1999/xhtml" class="labelBkg" style="display: table-cell; white-space: nowrap; line-height: 1.5; max-width: 200px; text-align: center;"><span class="edgeLabel"></span></div></foreignObject></g></g><g class="edgeLabel"><g class="label" data-id="L_ASTER_SCAN_0" transform="translate(0, 0)"><foreignObject width="0" height="0"><div xmlns="http://www.w3.org/1999/xhtml" class="labelBkg" style="display: table-cell; white-space: nowrap; line-height: 1.5; max-width: 200px; text-align: center;"><span class="edgeLabel"></span></div></foreignObject></g></g><g class="edgeLabel"><g class="label" data-id="L_SC_PIPE_0" transform="translate(0, 0)"><foreignObject width="0" height="0"><div xmlns="http://www.w3.org/1999/xhtml" class="labelBkg" style="display: table-cell; white-space: nowrap; line-height: 1.5; max-width: 200px; text-align: center;"><span class="edgeLabel"></span></div></foreignObject></g></g><g class="edgeLabel"><g class="label" data-id="L_TS_PIPE_0" transform="translate(0, 0)"><foreignObject width="0" height="0"><div xmlns="http://www.w3.org/1999/xhtml" class="labelBkg" style="display: table-cell; white-space: nowrap; line-height: 1.5; max-width: 200px; text-align: center;"><span class="edgeLabel"></span></div></foreignObject></g></g><g class="edgeLabel"><g class="label" data-id="L_EXEC_ASTER_0" transform="translate(0, 0)"><foreignObject width="0" height="0"><div xmlns="http://www.w3.org/1999/xhtml" class="labelBkg" style="display: table-cell; white-space: nowrap; line-height: 1.5; max-width: 200px; text-align: center;"><span class="edgeLabel"></span></div></foreignObject></g></g><g class="edgeLabel"><g class="label" data-id="L_EXEC_BN_0" transform="translate(0, 0)"><foreignObject width="0" height="0"><div xmlns="http://www.w3.org/1999/xhtml" class="labelBkg" style="display: table-cell; white-space: nowrap; line-height: 1.5; max-width: 200px; text-align: center;"><span class="edgeLabel"></span></div></foreignObject></g></g><g class="edgeLabel"><g class="label" data-id="L_EXEC_HL_0" transform="translate(0, 0)"><foreignObject width="0" height="0"><div xmlns="http://www.w3.org/1999/xhtml" class="labelBkg" style="display: table-cell; white-space: nowrap; line-height: 1.5; max-width: 200px; text-align: center;"><span class="edgeLabel"></span></div></foreignObject></g></g><g class="edgeLabel"><g class="label" data-id="L_EXEC_TS_0" transform="translate(0, 0)"><foreignObject width="0" height="0"><div xmlns="http://www.w3.org/1999/xhtml" class="labelBkg" style="display: table-cell; white-space: nowrap; line-height: 1.5; max-width: 200px; text-align: center;"><span class="edgeLabel"></span></div></foreignObject></g></g><g class="edgeLabel"><g class="label" data-id="L_PIPE_MEM_0" transform="translate(0, 0)"><foreignObject width="0" height="0"><div xmlns="http://www.w3.org/1999/xhtml" class="labelBkg" style="display: table-cell; white-space: nowrap; line-height: 1.5; max-width: 200px; text-align: center;"><span class="edgeLabel"></span></div></foreignObject></g></g><g class="edgeLabel"><g class="label" data-id="L_PIPE_TG_0" transform="translate(0, 0)"><foreignObject width="0" height="0"><div xmlns="http://www.w3.org/1999/xhtml" class="labelBkg" style="display: table-cell; white-space: nowrap; line-height: 1.5; max-width: 200px; text-align: center;"><span class="edgeLabel"></span></div></foreignObject></g></g><g class="edgeLabel"><g class="label" data-id="L_TG_SON_0" transform="translate(0, 0)"><foreignObject width="0" height="0"><div xmlns="http://www.w3.org/1999/xhtml" class="labelBkg" style="display: table-cell; white-space: nowrap; line-height: 1.5; max-width: 200px; text-align: center;"><span class="edgeLabel"></span></div></foreignObject></g></g><g class="edgeLabel"><g class="label" data-id="L_TG_HAI_0" transform="translate(0, 0)"><foreignObject width="0" height="0"><div xmlns="http://www.w3.org/1999/xhtml" class="labelBkg" style="display: table-cell; white-space: nowrap; line-height: 1.5; max-width: 200px; text-align: center;"><span class="edgeLabel"></span></div></foreignObject></g></g><g class="edgeLabel"><g class="label" data-id="L_DASH_TS_0" transform="translate(0, 0)"><foreignObject width="0" height="0"><div xmlns="http://www.w3.org/1999/xhtml" class="labelBkg" style="display: table-cell; white-space: nowrap; line-height: 1.5; max-width: 200px; text-align: center;"><span class="edgeLabel"></span></div></foreignObject></g></g><g class="edgeLabel"><g class="label" data-id="L_IND_BT_0" transform="translate(0, 0)"><foreignObject width="0" height="0"><div xmlns="http://www.w3.org/1999/xhtml" class="labelBkg" style="display: table-cell; white-space: nowrap; line-height: 1.5; max-width: 200px; text-align: center;"><span class="edgeLabel"></span></div></foreignObject></g></g><g class="edgeLabel"><g class="label" data-id="L_STRAT_BT_0" transform="translate(0, 0)"><foreignObject width="0" height="0"><div xmlns="http://www.w3.org/1999/xhtml" class="labelBkg" style="display: table-cell; white-space: nowrap; line-height: 1.5; max-width: 200px; text-align: center;"><span class="edgeLabel"></span></div></foreignObject></g></g><g class="edgeLabel"><g class="label" data-id="L_BT_VAL_0" transform="translate(0, 0)"><foreignObject width="0" height="0"><div xmlns="http://www.w3.org/1999/xhtml" class="labelBkg" style="display: table-cell; white-space: nowrap; line-height: 1.5; max-width: 200px; text-align: center;"><span class="edgeLabel"></span></div></foreignObject></g></g></g><g class="nodes"><g class="node default" id="flowchart-SCAN-0" transform="translate(429.828125, 1357)"><rect class="basic label-container" style="" x="-123.28125" y="-39" width="246.5625" height="78"/><g class="label" style="" transform="translate(-93.28125, -24)"><rect/><foreignObject width="186.5625" height="48"><div xmlns="http://www.w3.org/1999/xhtml" style="display: table-cell; white-space: nowrap; line-height: 1.5; max-width: 200px; text-align: center;"><span class="nodeLabel"><p>異步掃描器 Async Scanner<br />9 交易所 × 20s</p></span></div></foreignObject></g></g><g class="node default" id="flowchart-LIGHT-1" transform="translate(429.828125, 1485)"><rect class="basic label-container" style="" x="-101.09375" y="-39" width="202.1875" height="78"/><g class="label" style="" transform="translate(-71.09375, -24)"><rect/><foreignObject width="142.1875" height="48"><div xmlns="http://www.w3.org/1999/xhtml" style="display: table-cell; white-space: nowrap; line-height: 1.5; max-width: 200px; text-align: center;"><span class="nodeLabel"><p>輕量掃描 Light Scan<br />Aster 3min</p></span></div></foreignObject></g></g><g class="node default" id="flowchart-NEWS-2" transform="translate(429.828125, 1229)"><rect class="basic label-container" style="" x="-112.53125" y="-39" width="225.0625" height="78"/><g class="label" style="" transform="translate(-82.53125, -24)"><rect/><foreignObject width="165.0625" height="48"><div xmlns="http://www.w3.org/1999/xhtml" style="display: table-cell; white-space: nowrap; line-height: 1.5; max-width: 200px; text-align: center;"><span class="nodeLabel"><p>新聞爬蟲 News Scraper<br />RSS 每小時</p></span></div></foreignObject></g></g><g class="node default" id="flowchart-SC-3" transform="translate(761.390625, 1475)"><rect class="basic label-container" style="" x="-108.28125" y="-39" width="216.5625" height="78"/><g class="label" style="" transform="translate(-78.28125, -24)"><rect/><foreignObject width="156.5625" height="48"><div xmlns="http://www.w3.org/1999/xhtml" style="display: table-cell; white-space: nowrap; line-height: 1.5; max-width: 200px; text-align: center;"><span class="nodeLabel"><p>SCAN_CONFIG<br />掃描結果 Scan Results</p></span></div></foreignObject></g></g><g class="node default" id="flowchart-TS-4" transform="translate(2910.890625, 1404)"><rect class="basic label-container" style="" x="-130" y="-51" width="260" height="102"/><g class="label" style="" transform="translate(-100, -36)"><rect/><foreignObject width="200" height="72"><div xmlns="http://www.w3.org/1999/xhtml" style="display: table; white-space: break-spaces; line-height: 1.5; max-width: 200px; text-align: center; width: 200px;"><span class="nodeLabel"><p>TRADE_STATE<br />持倉+餘額 Positions+Balance</p></span></div></foreignObject></g></g><g class="node default" id="flowchart-LOG-5" transform="translate(2910.890625, 1544)"><rect class="basic label-container" style="" x="-106.6328125" y="-39" width="213.265625" height="78"/><g class="label" style="" transform="translate(-76.6328125, -24)"><rect/><foreignObject width="153.265625" height="48"><div xmlns="http://www.w3.org/1999/xhtml" style="display: table-cell; white-space: nowrap; line-height: 1.5; max-width: 200px; text-align: center;"><span class="nodeLabel"><p>活動日誌 Activity Log<br />WAL 恢復 Recovery</p></span></div></foreignObject></g></g><g class="node default" id="flowchart-MEM-6" transform="translate(1322.6953125, 1468)"><rect class="basic label-container" style="" x="-117.0703125" y="-39" width="234.140625" height="78"/><g class="label" style="" transform="translate(-87.0703125, -24)"><rect/><foreignObject width="174.140625" height="48"><div xmlns="http://www.w3.org/1999/xhtml" style="display: table-cell; white-space: nowrap; line-height: 1.5; max-width: 200px; text-align: center;"><span class="nodeLabel"><p>RAG 記憶庫 Memory<br />向量+BM25 Vector+BM25</p></span></div></foreignObject></g></g><g class="node default" id="flowchart-PIPE-7" transform="translate(1037.6484375, 1157)"><rect class="basic label-container" style="" x="-92.9765625" y="-27" width="185.953125" height="54"/><g class="label" style="" transform="translate(-62.9765625, -12)"><rect/><foreignObject width="125.953125" height="24"><div xmlns="http://www.w3.org/1999/xhtml" style="display: table-cell; white-space: nowrap; line-height: 1.5; max-width: 200px; text-align: center;"><span class="nodeLabel"><p>交易管道 Pipeline</p></span></div></foreignObject></g></g><g class="node default" id="flowchart-IND-8" transform="translate(1322.6953125, 1108)"><rect class="basic label-container" style="" x="-100.171875" y="-39" width="200.34375" height="78"/><g class="label" style="" transform="translate(-70.171875, -24)"><rect/><foreignObject width="140.34375" height="48"><div xmlns="http://www.w3.org/1999/xhtml" style="display: table-cell; white-space: nowrap; line-height: 1.5; max-width: 200px; text-align: center;"><span class="nodeLabel"><p>指標計算 Indicators<br />25+ × 3 Timeframes</p></span></div></foreignObject></g></g><g class="node default" id="flowchart-MODE-10" transform="translate(1663.1640625, 1157)"><rect class="basic label-container" style="" x="-109.546875" y="-39" width="219.09375" height="78"/><g class="label" style="" transform="translate(-79.546875, -24)"><rect/><foreignObject width="159.09375" height="48"><div xmlns="http://www.w3.org/1999/xhtml" style="display: table-cell; white-space: nowrap; line-height: 1.5; max-width: 200px; text-align: center;"><span class="nodeLabel"><p>狀態偵測 Mode Detect<br />6 票投票 6-Vote</p></span></div></foreignObject></g></g><g class="node default" id="flowchart-STRAT-12" transform="translate(1991.5625, 1157)"><rect class="basic label-container" style="" x="-130" y="-51" width="260" height="102"/><g class="label" style="" transform="translate(-100, -36)"><rect/><foreignObject width="200" height="72"><div xmlns="http://www.w3.org/1999/xhtml" style="display: table; white-space: break-spaces; line-height: 1.5; max-width: 200px; text-align: center; width: 200px;"><span class="nodeLabel"><p>策略選擇 Strategy<br />橫盤·趨勢·暴跌 Range·Trend·Crash</p></span></div></foreignObject></g></g><g class="node default" id="flowchart-RISK-14" transform="translate(2319.8203125, 1167)"><rect class="basic label-container" style="" x="-118.59375" y="-39" width="237.1875" height="78"/><g class="label" style="" transform="translate(-88.59375, -24)"><rect/><foreignObject width="177.1875" height="48"><div xmlns="http://www.w3.org/1999/xhtml" style="display: table-cell; white-space: nowrap; line-height: 1.5; max-width: 200px; text-align: center;"><span class="nodeLabel"><p>風控 Risk Manager<br />熔斷·倉位 Breaker·Sizing</p></span></div></foreignObject></g></g><g class="node default" id="flowchart-EXEC-16" transform="translate(2599.484375, 1167)"><rect class="basic label-container" style="" x="-95.9765625" y="-39" width="191.953125" height="78"/><g class="label" style="" transform="translate(-65.9765625, -24)"><rect/><foreignObject width="131.953125" height="48"><div xmlns="http://www.w3.org/1999/xhtml" style="display: table-cell; white-space: nowrap; line-height: 1.5; max-width: 200px; text-align: center;"><span class="nodeLabel"><p>下單執行 Executor<br />7 步序列 7-Step</p></span></div></foreignObject></g></g><g class="node default" id="flowchart-ASTER-17" transform="translate(2910.890625, 378)"><rect class="basic label-container" style="" x="-75.7890625" y="-39" width="151.578125" height="78"/><g class="label" style="" transform="translate(-45.7890625, -24)"><rect/><foreignObject width="91.578125" height="48"><div xmlns="http://www.w3.org/1999/xhtml" style="display: table-cell; white-space: nowrap; line-height: 1.5; max-width: 200px; text-align: center;"><span class="nodeLabel"><p>Aster DEX<br />主力 Primary</p></span></div></foreignObject></g></g><g class="node default" id="flowchart-BN-18" transform="translate(2910.890625, 506)"><rect class="basic label-container" style="" x="-84.9609375" y="-39" width="169.921875" height="78"/><g class="label" style="" transform="translate(-54.9609375, -24)"><rect/><foreignObject width="109.921875" height="48"><div xmlns="http://www.w3.org/1999/xhtml" style="display: table-cell; white-space: nowrap; line-height: 1.5; max-width: 200px; text-align: center;"><span class="nodeLabel"><p>Binance<br />副線 Secondary</p></span></div></foreignObject></g></g><g class="node default" id="flowchart-HL-19" transform="translate(2910.890625, 634)"><rect class="basic label-container" style="" x="-76.2421875" y="-39" width="152.484375" height="78"/><g class="label" style="" transform="translate(-46.2421875, -24)"><rect/><foreignObject width="92.484375" height="48"><div xmlns="http://www.w3.org/1999/xhtml" style="display: table-cell; white-space: nowrap; line-height: 1.5; max-width: 200px; text-align: center;"><span class="nodeLabel"><p>HyperLiquid<br />第三 Tertiary</p></span></div></foreignObject></g></g><g class="node default" id="flowchart-OTHERS-20" transform="translate(132.2734375, 506)"><rect class="basic label-container" style="" x="-99.2734375" y="-51" width="198.546875" height="102"/><g class="label" style="" transform="translate(-69.2734375, -36)"><rect/><foreignObject width="138.546875" height="72"><div xmlns="http://www.w3.org/1999/xhtml" style="display: table-cell; white-space: nowrap; line-height: 1.5; max-width: 200px; text-align: center;"><span class="nodeLabel"><p>Bybit·OKX·KuCoin<br />Gate·MEXC·Bitget<br />只做掃描 Scan Only</p></span></div></foreignObject></g></g><g class="node default" id="flowchart-TG-21" transform="translate(1322.6953125, 802)"><rect class="basic label-container" style="" x="-110.296875" y="-39" width="220.59375" height="78"/><g class="label" style="" transform="translate(-80.296875, -24)"><rect/><foreignObject width="160.59375" height="48"><div xmlns="http://www.w3.org/1999/xhtml" style="display: table-cell; white-space: nowrap; line-height: 1.5; max-width: 200px; text-align: center;"><span class="nodeLabel"><p>Telegram Bot<br />通知+對話 Alerts+Chat</p></span></div></foreignObject></g></g><g class="node default" id="flowchart-DASH-22" transform="translate(1322.6953125, 930)"><rect class="basic label-container" style="" x="-93.6484375" y="-39" width="187.296875" height="78"/><g class="label" style="" transform="translate(-63.6484375, -24)"><rect/><foreignObject width="127.296875" height="48"><div xmlns="http://www.w3.org/1999/xhtml" style="display: table-cell; white-space: nowrap; line-height: 1.5; max-width: 200px; text-align: center;"><span class="nodeLabel"><p>儀表板 Dashboard<br />:5566</p></span></div></foreignObject></g></g><g class="node default" id="flowchart-SON-23" transform="translate(1663.1640625, 82)"><rect class="basic label-container" style="" x="-112.828125" y="-39" width="225.65625" height="78"/><g class="label" style="" transform="translate(-82.828125, -24)"><rect/><foreignObject width="165.65625" height="48"><div xmlns="http://www.w3.org/1999/xhtml" style="display: table-cell; white-space: nowrap; line-height: 1.5; max-width: 200px; text-align: center;"><span class="nodeLabel"><p>Claude Sonnet<br />深度分析 Deep Analysis</p></span></div></foreignObject></g></g><g class="node default" id="flowchart-HAI-24" transform="translate(1663.1640625, 210)"><rect class="basic label-container" style="" x="-123.3984375" y="-39" width="246.796875" height="78"/><g class="label" style="" transform="translate(-93.3984375, -24)"><rect/><foreignObject width="186.796875" height="48"><div xmlns="http://www.w3.org/1999/xhtml" style="display: table-cell; white-space: nowrap; line-height: 1.5; max-width: 200px; text-align: center;"><span class="nodeLabel"><p>Haiku·GPT-5.4<br />情緒·閒聊 Sentiment·Chat</p></span></div></foreignObject></g></g><g class="node default" id="flowchart-BT-25" transform="translate(2319.8203125, 136)"><rect class="basic label-container" style="" x="-123.2578125" y="-39" width="246.515625" height="78"/><g class="label" style="" transform="translate(-93.2578125, -24)"><rect/><foreignObject width="186.515625" height="48"><div xmlns="http://www.w3.org/1999/xhtml" style="display: table-cell; white-space: nowrap; line-height: 1.5; max-width: 200px; text-align: center;"><span class="nodeLabel"><p>回測引擎 Engine<br />同生產同 code Same Code</p></span></div></foreignObject></g></g><g class="node default" id="flowchart-VAL-26" transform="translate(2599.484375, 136)"><rect class="basic label-container" style="" x="-106.40625" y="-39" width="212.8125" height="78"/><g class="label" style="" transform="translate(-76.40625, -24)"><rect/><foreignObject width="152.8125" height="48"><div xmlns="http://www.w3.org/1999/xhtml" style="display: table-cell; white-space: nowrap; line-height: 1.5; max-width: 200px; text-align: center;"><span class="nodeLabel"><p>6 個驗證器 Validators<br />Monte Carlo 等</p></span></div></foreignObject></g></g></g></g></g></svg>